<mxfile host="app.diagrams.net" agent="Mozilla/5.0 (Windows NT 10.0; Win64; x64) AppleWebKit/537.36 (KHTML, like Gecko) Chrome/134.0.0.0 Safari/537.36" version="26.1.1">
  <diagram name="Page-1" id="MfIMg8ceY4TZrhRC4Jw5">
    <mxGraphModel dx="2107" dy="1769" grid="1" gridSize="10" guides="1" tooltips="1" connect="1" arrows="1" fold="1" page="1" pageScale="1" pageWidth="850" pageHeight="1100" math="0" shadow="0">
      <root>
        <mxCell id="0" />
        <mxCell id="1" parent="0" />
        <mxCell id="8QTt8qBD1zh6w0zTsEaT-1" value="Student" style="shape=umlActor;verticalLabelPosition=bottom;verticalAlign=top;html=1;outlineConnect=0;" vertex="1" parent="1">
          <mxGeometry x="-140" y="140" width="30" height="60" as="geometry" />
        </mxCell>
        <mxCell id="8QTt8qBD1zh6w0zTsEaT-2" value="Teacher" style="shape=umlActor;verticalLabelPosition=bottom;verticalAlign=top;html=1;outlineConnect=0;" vertex="1" parent="1">
          <mxGeometry x="-140" y="250" width="30" height="60" as="geometry" />
        </mxCell>
        <mxCell id="8QTt8qBD1zh6w0zTsEaT-3" value="Campus Administrator" style="shape=umlActor;verticalLabelPosition=bottom;verticalAlign=top;html=1;outlineConnect=0;" vertex="1" parent="1">
          <mxGeometry x="-140" y="360" width="30" height="60" as="geometry" />
        </mxCell>
        <mxCell id="8QTt8qBD1zh6w0zTsEaT-10" value="Visitors" style="shape=umlActor;verticalLabelPosition=bottom;verticalAlign=top;html=1;outlineConnect=0;" vertex="1" parent="1">
          <mxGeometry x="-140" y="450" width="30" height="60" as="geometry" />
        </mxCell>
        <mxCell id="8QTt8qBD1zh6w0zTsEaT-20" value="&lt;b&gt;&lt;font style=&quot;font-size: 14px;&quot;&gt;LEVEL 0&lt;/font&gt;&lt;/b&gt;" style="text;html=1;align=center;verticalAlign=middle;whiteSpace=wrap;rounded=0;" vertex="1" parent="1">
          <mxGeometry x="-10" y="-565" width="60" height="30" as="geometry" />
        </mxCell>
        <mxCell id="8QTt8qBD1zh6w0zTsEaT-22" value="Student" style="shape=umlActor;verticalLabelPosition=bottom;verticalAlign=top;html=1;outlineConnect=0;" vertex="1" parent="1">
          <mxGeometry x="-210" y="-520" width="30" height="60" as="geometry" />
        </mxCell>
        <mxCell id="8QTt8qBD1zh6w0zTsEaT-23" value="Teacher" style="shape=umlActor;verticalLabelPosition=bottom;verticalAlign=top;html=1;outlineConnect=0;" vertex="1" parent="1">
          <mxGeometry x="-210" y="-410" width="30" height="60" as="geometry" />
        </mxCell>
        <mxCell id="8QTt8qBD1zh6w0zTsEaT-24" value="Campus Administrator" style="shape=umlActor;verticalLabelPosition=bottom;verticalAlign=top;html=1;outlineConnect=0;" vertex="1" parent="1">
          <mxGeometry x="-210" y="-300" width="30" height="60" as="geometry" />
        </mxCell>
        <mxCell id="8QTt8qBD1zh6w0zTsEaT-26" value="" style="whiteSpace=wrap;html=1;aspect=fixed;" vertex="1" parent="1">
          <mxGeometry x="-70" y="-485" width="210" height="210" as="geometry" />
        </mxCell>
        <mxCell id="8QTt8qBD1zh6w0zTsEaT-27" value="SCEMS" style="ellipse;whiteSpace=wrap;html=1;fillColor=#ffcd28;strokeColor=#d79b00;gradientColor=#ffa500;" vertex="1" parent="1">
          <mxGeometry x="-25" y="-420" width="120" height="80" as="geometry" />
        </mxCell>
        <mxCell id="8QTt8qBD1zh6w0zTsEaT-28" value="GPS" style="rounded=1;whiteSpace=wrap;html=1;" vertex="1" parent="1">
          <mxGeometry x="200" y="-510" width="120" height="60" as="geometry" />
        </mxCell>
        <mxCell id="8QTt8qBD1zh6w0zTsEaT-29" value="EMAIL" style="rounded=1;whiteSpace=wrap;html=1;" vertex="1" parent="1">
          <mxGeometry x="200" y="-410" width="120" height="60" as="geometry" />
        </mxCell>
        <mxCell id="8QTt8qBD1zh6w0zTsEaT-38" value="&lt;b&gt;&lt;font style=&quot;font-size: 14px;&quot;&gt;LEVEL 1&lt;/font&gt;&lt;/b&gt;" style="text;html=1;align=center;verticalAlign=middle;whiteSpace=wrap;rounded=0;" vertex="1" parent="1">
          <mxGeometry x="70" y="10" width="60" height="30" as="geometry" />
        </mxCell>
        <mxCell id="8QTt8qBD1zh6w0zTsEaT-43" value="" style="whiteSpace=wrap;html=1;" vertex="1" parent="1">
          <mxGeometry x="-10" y="70" width="220" height="860" as="geometry" />
        </mxCell>
        <mxCell id="8QTt8qBD1zh6w0zTsEaT-5" value="Account Management" style="ellipse;whiteSpace=wrap;html=1;fillColor=#ffcd28;gradientColor=#ffa500;strokeColor=#d79b00;" vertex="1" parent="1">
          <mxGeometry x="40" y="90" width="120" height="80" as="geometry" />
        </mxCell>
        <mxCell id="8QTt8qBD1zh6w0zTsEaT-4" value="Feedback" style="ellipse;whiteSpace=wrap;html=1;fillColor=#ffcd28;gradientColor=#ffa500;strokeColor=#d79b00;" vertex="1" parent="1">
          <mxGeometry x="40" y="710" width="120" height="80" as="geometry" />
        </mxCell>
        <mxCell id="8QTt8qBD1zh6w0zTsEaT-6" value="Navigation" style="ellipse;whiteSpace=wrap;html=1;fillColor=#ffcd28;gradientColor=#ffa500;strokeColor=#d79b00;" vertex="1" parent="1">
          <mxGeometry x="40" y="300" width="120" height="80" as="geometry" />
        </mxCell>
        <mxCell id="8QTt8qBD1zh6w0zTsEaT-7" value="Booking And Reservation" style="ellipse;whiteSpace=wrap;html=1;fillColor=#ffcd28;gradientColor=#ffa500;strokeColor=#d79b00;" vertex="1" parent="1">
          <mxGeometry x="40" y="200" width="120" height="80" as="geometry" />
        </mxCell>
        <mxCell id="8QTt8qBD1zh6w0zTsEaT-8" value="Digital Access" style="ellipse;whiteSpace=wrap;html=1;fillColor=#ffcd28;gradientColor=#ffa500;strokeColor=#d79b00;" vertex="1" parent="1">
          <mxGeometry x="40" y="510" width="120" height="80" as="geometry" />
        </mxCell>
        <mxCell id="8QTt8qBD1zh6w0zTsEaT-9" value="Administrative Management" style="ellipse;whiteSpace=wrap;html=1;fillColor=#ffcd28;gradientColor=#ffa500;strokeColor=#d79b00;" vertex="1" parent="1">
          <mxGeometry x="40" y="410" width="120" height="80" as="geometry" />
        </mxCell>
        <mxCell id="8QTt8qBD1zh6w0zTsEaT-11" value="Tour Experience" style="ellipse;whiteSpace=wrap;html=1;fillColor=#ffcd28;gradientColor=#ffa500;strokeColor=#d79b00;" vertex="1" parent="1">
          <mxGeometry x="40" y="610" width="120" height="80" as="geometry" />
        </mxCell>
        <mxCell id="8QTt8qBD1zh6w0zTsEaT-44" value="SMART NOTIFICATION" style="rounded=1;whiteSpace=wrap;html=1;" vertex="1" parent="1">
          <mxGeometry x="200" y="-290" width="120" height="60" as="geometry" />
        </mxCell>
        <mxCell id="8QTt8qBD1zh6w0zTsEaT-46" value="IoT Device" style="rounded=1;whiteSpace=wrap;html=1;" vertex="1" parent="1">
          <mxGeometry x="200" y="-595" width="120" height="60" as="geometry" />
        </mxCell>
        <mxCell id="8QTt8qBD1zh6w0zTsEaT-48" value="" style="endArrow=none;html=1;rounded=0;exitX=0.5;exitY=0.5;exitDx=0;exitDy=0;exitPerimeter=0;entryX=0;entryY=0.5;entryDx=0;entryDy=0;" edge="1" parent="1" source="8QTt8qBD1zh6w0zTsEaT-3" target="8QTt8qBD1zh6w0zTsEaT-9">
          <mxGeometry width="50" height="50" relative="1" as="geometry">
            <mxPoint x="-70" y="440" as="sourcePoint" />
            <mxPoint x="-20" y="390" as="targetPoint" />
          </mxGeometry>
        </mxCell>
        <mxCell id="8QTt8qBD1zh6w0zTsEaT-50" value="" style="endArrow=none;html=1;rounded=0;exitX=0.5;exitY=0.5;exitDx=0;exitDy=0;exitPerimeter=0;entryX=0;entryY=0.5;entryDx=0;entryDy=0;" edge="1" parent="1" source="8QTt8qBD1zh6w0zTsEaT-10" target="8QTt8qBD1zh6w0zTsEaT-11">
          <mxGeometry width="50" height="50" relative="1" as="geometry">
            <mxPoint x="-80" y="640" as="sourcePoint" />
            <mxPoint x="-30" y="590" as="targetPoint" />
          </mxGeometry>
        </mxCell>
        <mxCell id="8QTt8qBD1zh6w0zTsEaT-56" value="" style="endArrow=none;html=1;rounded=0;exitX=0.5;exitY=0.5;exitDx=0;exitDy=0;exitPerimeter=0;entryX=0;entryY=0.5;entryDx=0;entryDy=0;" edge="1" parent="1" source="8QTt8qBD1zh6w0zTsEaT-2" target="8QTt8qBD1zh6w0zTsEaT-6">
          <mxGeometry width="50" height="50" relative="1" as="geometry">
            <mxPoint x="50" y="330" as="sourcePoint" />
            <mxPoint x="-70" y="330" as="targetPoint" />
          </mxGeometry>
        </mxCell>
        <mxCell id="8QTt8qBD1zh6w0zTsEaT-57" value="" style="endArrow=none;html=1;rounded=0;exitX=0.5;exitY=0.5;exitDx=0;exitDy=0;exitPerimeter=0;entryX=0;entryY=0.5;entryDx=0;entryDy=0;" edge="1" parent="1" source="8QTt8qBD1zh6w0zTsEaT-1" target="8QTt8qBD1zh6w0zTsEaT-8">
          <mxGeometry width="50" height="50" relative="1" as="geometry">
            <mxPoint x="50" y="470" as="sourcePoint" />
            <mxPoint x="100" y="420" as="targetPoint" />
          </mxGeometry>
        </mxCell>
        <mxCell id="8QTt8qBD1zh6w0zTsEaT-58" value="" style="endArrow=none;html=1;rounded=0;entryX=0;entryY=0.5;entryDx=0;entryDy=0;exitX=0.5;exitY=0.5;exitDx=0;exitDy=0;exitPerimeter=0;" edge="1" parent="1" source="8QTt8qBD1zh6w0zTsEaT-1" target="8QTt8qBD1zh6w0zTsEaT-4">
          <mxGeometry width="50" height="50" relative="1" as="geometry">
            <mxPoint x="-110" y="720" as="sourcePoint" />
            <mxPoint x="-60" y="670" as="targetPoint" />
          </mxGeometry>
        </mxCell>
        <mxCell id="8QTt8qBD1zh6w0zTsEaT-59" value="Notification" style="ellipse;whiteSpace=wrap;html=1;fillColor=#ffcd28;gradientColor=#ffa500;strokeColor=#d79b00;" vertex="1" parent="1">
          <mxGeometry x="40" y="820" width="120" height="80" as="geometry" />
        </mxCell>
        <mxCell id="8QTt8qBD1zh6w0zTsEaT-60" value="" style="endArrow=none;html=1;rounded=0;entryX=0;entryY=0.5;entryDx=0;entryDy=0;exitX=0.5;exitY=0.5;exitDx=0;exitDy=0;exitPerimeter=0;" edge="1" parent="1" source="8QTt8qBD1zh6w0zTsEaT-1" target="8QTt8qBD1zh6w0zTsEaT-59">
          <mxGeometry width="50" height="50" relative="1" as="geometry">
            <mxPoint x="-120" y="170" as="sourcePoint" />
            <mxPoint x="-80" y="710" as="targetPoint" />
          </mxGeometry>
        </mxCell>
        <mxCell id="8QTt8qBD1zh6w0zTsEaT-63" value="" style="endArrow=none;html=1;rounded=0;exitX=0.5;exitY=0.5;exitDx=0;exitDy=0;exitPerimeter=0;entryX=0;entryY=0;entryDx=0;entryDy=0;" edge="1" parent="1" source="8QTt8qBD1zh6w0zTsEaT-3" target="8QTt8qBD1zh6w0zTsEaT-59">
          <mxGeometry width="50" height="50" relative="1" as="geometry">
            <mxPoint x="-150" y="800" as="sourcePoint" />
            <mxPoint x="-100" y="750" as="targetPoint" />
          </mxGeometry>
        </mxCell>
        <mxCell id="8QTt8qBD1zh6w0zTsEaT-65" value="&lt;b&gt;&lt;font style=&quot;font-size: 14px;&quot;&gt;Level 1.1&lt;br&gt;Account Management&lt;/font&gt;&lt;/b&gt;" style="text;html=1;align=center;verticalAlign=middle;whiteSpace=wrap;rounded=0;" vertex="1" parent="1">
          <mxGeometry x="50" y="1040" width="80" height="30" as="geometry" />
        </mxCell>
        <mxCell id="8QTt8qBD1zh6w0zTsEaT-67" value="" style="whiteSpace=wrap;html=1;" vertex="1" parent="1">
          <mxGeometry x="20" y="1120" width="200" height="450" as="geometry" />
        </mxCell>
        <mxCell id="8QTt8qBD1zh6w0zTsEaT-66" value="CREATE ACCOUNT" style="ellipse;whiteSpace=wrap;html=1;fillColor=#ffcd28;gradientColor=#ffa500;strokeColor=#d79b00;" vertex="1" parent="1">
          <mxGeometry x="60" y="1150" width="120" height="80" as="geometry" />
        </mxCell>
        <mxCell id="8QTt8qBD1zh6w0zTsEaT-68" value="LOGIN" style="ellipse;whiteSpace=wrap;html=1;fillColor=#ffcd28;gradientColor=#ffa500;strokeColor=#d79b00;" vertex="1" parent="1">
          <mxGeometry x="60" y="1250" width="120" height="80" as="geometry" />
        </mxCell>
        <mxCell id="8QTt8qBD1zh6w0zTsEaT-69" value="UPDATE ACCOUNT" style="ellipse;whiteSpace=wrap;html=1;fillColor=#ffcd28;gradientColor=#ffa500;strokeColor=#d79b00;" vertex="1" parent="1">
          <mxGeometry x="60" y="1360" width="120" height="80" as="geometry" />
        </mxCell>
        <mxCell id="8QTt8qBD1zh6w0zTsEaT-70" value="PASSWORD RECOVERY" style="ellipse;whiteSpace=wrap;html=1;fillColor=#ffcd28;gradientColor=#ffa500;strokeColor=#d79b00;" vertex="1" parent="1">
          <mxGeometry x="60" y="1460" width="120" height="80" as="geometry" />
        </mxCell>
        <mxCell id="8QTt8qBD1zh6w0zTsEaT-71" value="Student" style="shape=umlActor;verticalLabelPosition=bottom;verticalAlign=top;html=1;outlineConnect=0;" vertex="1" parent="1">
          <mxGeometry x="-100" y="1170" width="30" height="60" as="geometry" />
        </mxCell>
        <mxCell id="8QTt8qBD1zh6w0zTsEaT-72" value="Teacher" style="shape=umlActor;verticalLabelPosition=bottom;verticalAlign=top;html=1;outlineConnect=0;" vertex="1" parent="1">
          <mxGeometry x="-100" y="1300" width="30" height="60" as="geometry" />
        </mxCell>
        <mxCell id="8QTt8qBD1zh6w0zTsEaT-88" value="&lt;b&gt;&lt;font style=&quot;font-size: 14px;&quot;&gt;Level 2.1&lt;br&gt;Navigation&lt;/font&gt;&lt;/b&gt;" style="text;html=1;align=center;verticalAlign=middle;whiteSpace=wrap;rounded=0;" vertex="1" parent="1">
          <mxGeometry x="70" y="1670" width="80" height="30" as="geometry" />
        </mxCell>
        <mxCell id="8QTt8qBD1zh6w0zTsEaT-89" value="" style="whiteSpace=wrap;html=1;" vertex="1" parent="1">
          <mxGeometry x="20" y="1730" width="200" height="450" as="geometry" />
        </mxCell>
        <mxCell id="8QTt8qBD1zh6w0zTsEaT-90" value="&lt;font style=&quot;font-size: 14px;&quot;&gt;Classroom Location&lt;/font&gt;" style="ellipse;whiteSpace=wrap;html=1;fillColor=#ffcd28;gradientColor=#ffa500;strokeColor=#d79b00;" vertex="1" parent="1">
          <mxGeometry x="60" y="1750" width="120" height="80" as="geometry" />
        </mxCell>
        <mxCell id="8QTt8qBD1zh6w0zTsEaT-91" value="&lt;font style=&quot;font-size: 14px;&quot;&gt;Library Location&lt;/font&gt;" style="ellipse;whiteSpace=wrap;html=1;fillColor=#ffcd28;gradientColor=#ffa500;strokeColor=#d79b00;" vertex="1" parent="1">
          <mxGeometry x="60" y="1860" width="120" height="80" as="geometry" />
        </mxCell>
        <mxCell id="8QTt8qBD1zh6w0zTsEaT-92" value="&lt;font style=&quot;font-size: 14px;&quot;&gt;Cafeterias Location&lt;/font&gt;" style="ellipse;whiteSpace=wrap;html=1;fillColor=#ffcd28;gradientColor=#ffa500;strokeColor=#d79b00;" vertex="1" parent="1">
          <mxGeometry x="60" y="1970" width="120" height="80" as="geometry" />
        </mxCell>
        <mxCell id="8QTt8qBD1zh6w0zTsEaT-93" value="&lt;font style=&quot;font-size: 14px;&quot;&gt;Other Campus Facilities&lt;/font&gt;" style="ellipse;whiteSpace=wrap;html=1;fillColor=#ffcd28;gradientColor=#ffa500;strokeColor=#d79b00;" vertex="1" parent="1">
          <mxGeometry x="60" y="2080" width="120" height="80" as="geometry" />
        </mxCell>
        <mxCell id="8QTt8qBD1zh6w0zTsEaT-94" value="Student" style="shape=umlActor;verticalLabelPosition=bottom;verticalAlign=top;html=1;outlineConnect=0;" vertex="1" parent="1">
          <mxGeometry x="-130" y="1800" width="30" height="60" as="geometry" />
        </mxCell>
        <mxCell id="8QTt8qBD1zh6w0zTsEaT-95" value="Teacher" style="shape=umlActor;verticalLabelPosition=bottom;verticalAlign=top;html=1;outlineConnect=0;" vertex="1" parent="1">
          <mxGeometry x="-130" y="1925" width="30" height="60" as="geometry" />
        </mxCell>
        <mxCell id="8QTt8qBD1zh6w0zTsEaT-104" value="" style="endArrow=none;html=1;rounded=0;exitX=0.5;exitY=0.5;exitDx=0;exitDy=0;exitPerimeter=0;entryX=0;entryY=0.5;entryDx=0;entryDy=0;" edge="1" parent="1" source="8QTt8qBD1zh6w0zTsEaT-95" target="8QTt8qBD1zh6w0zTsEaT-93">
          <mxGeometry width="50" height="50" relative="1" as="geometry">
            <mxPoint x="-50" y="2110" as="sourcePoint" />
            <mxPoint y="2060" as="targetPoint" />
          </mxGeometry>
        </mxCell>
        <mxCell id="8QTt8qBD1zh6w0zTsEaT-105" value="&lt;font style=&quot;font-size: 14px;&quot;&gt;GPS&lt;/font&gt;" style="rounded=1;whiteSpace=wrap;html=1;" vertex="1" parent="1">
          <mxGeometry x="290" y="1830" width="120" height="60" as="geometry" />
        </mxCell>
        <mxCell id="8QTt8qBD1zh6w0zTsEaT-106" value="" style="endArrow=none;html=1;rounded=0;exitX=1;exitY=0.5;exitDx=0;exitDy=0;entryX=0;entryY=0.5;entryDx=0;entryDy=0;" edge="1" parent="1" source="8QTt8qBD1zh6w0zTsEaT-90" target="8QTt8qBD1zh6w0zTsEaT-105">
          <mxGeometry width="50" height="50" relative="1" as="geometry">
            <mxPoint x="240" y="1850" as="sourcePoint" />
            <mxPoint x="290" y="1800" as="targetPoint" />
          </mxGeometry>
        </mxCell>
        <mxCell id="8QTt8qBD1zh6w0zTsEaT-107" value="" style="endArrow=none;html=1;rounded=0;exitX=1;exitY=0.5;exitDx=0;exitDy=0;entryX=0;entryY=0.75;entryDx=0;entryDy=0;" edge="1" parent="1" source="8QTt8qBD1zh6w0zTsEaT-91" target="8QTt8qBD1zh6w0zTsEaT-105">
          <mxGeometry width="50" height="50" relative="1" as="geometry">
            <mxPoint x="230" y="1970" as="sourcePoint" />
            <mxPoint x="280" y="1920" as="targetPoint" />
          </mxGeometry>
        </mxCell>
        <mxCell id="8QTt8qBD1zh6w0zTsEaT-108" value="" style="endArrow=none;html=1;rounded=0;exitX=1;exitY=0.5;exitDx=0;exitDy=0;entryX=0.5;entryY=1;entryDx=0;entryDy=0;" edge="1" parent="1" source="8QTt8qBD1zh6w0zTsEaT-92" target="8QTt8qBD1zh6w0zTsEaT-105">
          <mxGeometry width="50" height="50" relative="1" as="geometry">
            <mxPoint x="250" y="1870" as="sourcePoint" />
            <mxPoint x="300" y="1820" as="targetPoint" />
          </mxGeometry>
        </mxCell>
        <mxCell id="8QTt8qBD1zh6w0zTsEaT-110" value="&lt;b&gt;&lt;font style=&quot;font-size: 14px;&quot;&gt;Level 3.1&lt;br&gt;Booking and Reservation&lt;/font&gt;&lt;/b&gt;" style="text;html=1;align=center;verticalAlign=middle;whiteSpace=wrap;rounded=0;" vertex="1" parent="1">
          <mxGeometry x="70" y="2310" width="80" height="30" as="geometry" />
        </mxCell>
        <mxCell id="8QTt8qBD1zh6w0zTsEaT-111" value="" style="whiteSpace=wrap;html=1;" vertex="1" parent="1">
          <mxGeometry x="20" y="2380" width="200" height="260" as="geometry" />
        </mxCell>
        <mxCell id="8QTt8qBD1zh6w0zTsEaT-112" value="BOOK STUDY ROOM" style="ellipse;whiteSpace=wrap;html=1;fillColor=#ffcd28;gradientColor=#ffa500;strokeColor=#d79b00;" vertex="1" parent="1">
          <mxGeometry x="60" y="2410" width="120" height="80" as="geometry" />
        </mxCell>
        <mxCell id="8QTt8qBD1zh6w0zTsEaT-113" value="Reserve Seat in Library" style="ellipse;whiteSpace=wrap;html=1;fillColor=#ffcd28;gradientColor=#ffa500;strokeColor=#d79b00;" vertex="1" parent="1">
          <mxGeometry x="60" y="2520" width="120" height="80" as="geometry" />
        </mxCell>
        <mxCell id="8QTt8qBD1zh6w0zTsEaT-114" value="Student" style="shape=umlActor;verticalLabelPosition=bottom;verticalAlign=top;html=1;outlineConnect=0;" vertex="1" parent="1">
          <mxGeometry x="-70" y="2460" width="30" height="60" as="geometry" />
        </mxCell>
        <mxCell id="8QTt8qBD1zh6w0zTsEaT-115" value="" style="endArrow=none;html=1;rounded=0;exitX=0.5;exitY=0.5;exitDx=0;exitDy=0;exitPerimeter=0;entryX=0;entryY=0.5;entryDx=0;entryDy=0;" edge="1" parent="1" source="8QTt8qBD1zh6w0zTsEaT-114" target="8QTt8qBD1zh6w0zTsEaT-112">
          <mxGeometry width="50" height="50" relative="1" as="geometry">
            <mxPoint x="-80" y="2620" as="sourcePoint" />
            <mxPoint x="-30" y="2570" as="targetPoint" />
          </mxGeometry>
        </mxCell>
        <mxCell id="8QTt8qBD1zh6w0zTsEaT-116" value="" style="endArrow=none;html=1;rounded=0;exitX=0.5;exitY=0.5;exitDx=0;exitDy=0;exitPerimeter=0;entryX=0;entryY=0.5;entryDx=0;entryDy=0;" edge="1" parent="1" source="8QTt8qBD1zh6w0zTsEaT-114" target="8QTt8qBD1zh6w0zTsEaT-113">
          <mxGeometry width="50" height="50" relative="1" as="geometry">
            <mxPoint x="-40" y="2620" as="sourcePoint" />
            <mxPoint x="10" y="2570" as="targetPoint" />
          </mxGeometry>
        </mxCell>
        <mxCell id="8QTt8qBD1zh6w0zTsEaT-117" value="" style="endArrow=none;html=1;rounded=0;entryX=0;entryY=0;entryDx=0;entryDy=0;exitX=0.5;exitY=0.5;exitDx=0;exitDy=0;exitPerimeter=0;" edge="1" parent="1" source="8QTt8qBD1zh6w0zTsEaT-94" target="8QTt8qBD1zh6w0zTsEaT-93">
          <mxGeometry width="50" height="50" relative="1" as="geometry">
            <mxPoint x="380" y="2120" as="sourcePoint" />
            <mxPoint x="430" y="2070" as="targetPoint" />
          </mxGeometry>
        </mxCell>
        <mxCell id="8QTt8qBD1zh6w0zTsEaT-118" value="" style="endArrow=none;html=1;rounded=0;exitX=0.5;exitY=0.5;exitDx=0;exitDy=0;exitPerimeter=0;entryX=0;entryY=1;entryDx=0;entryDy=0;" edge="1" parent="1" source="8QTt8qBD1zh6w0zTsEaT-95" target="8QTt8qBD1zh6w0zTsEaT-92">
          <mxGeometry width="50" height="50" relative="1" as="geometry">
            <mxPoint x="-60" y="2030" as="sourcePoint" />
            <mxPoint x="-10" y="1980" as="targetPoint" />
          </mxGeometry>
        </mxCell>
        <mxCell id="8QTt8qBD1zh6w0zTsEaT-119" value="" style="endArrow=none;html=1;rounded=0;exitX=0;exitY=1;exitDx=0;exitDy=0;entryX=0.5;entryY=0.5;entryDx=0;entryDy=0;entryPerimeter=0;" edge="1" parent="1" source="8QTt8qBD1zh6w0zTsEaT-91" target="8QTt8qBD1zh6w0zTsEaT-95">
          <mxGeometry width="50" height="50" relative="1" as="geometry">
            <mxPoint x="380" y="2120" as="sourcePoint" />
            <mxPoint x="-60" y="1990" as="targetPoint" />
          </mxGeometry>
        </mxCell>
        <mxCell id="8QTt8qBD1zh6w0zTsEaT-120" value="" style="endArrow=none;html=1;rounded=0;exitX=0.5;exitY=0.5;exitDx=0;exitDy=0;exitPerimeter=0;entryX=0;entryY=1;entryDx=0;entryDy=0;" edge="1" parent="1" source="8QTt8qBD1zh6w0zTsEaT-95" target="8QTt8qBD1zh6w0zTsEaT-90">
          <mxGeometry width="50" height="50" relative="1" as="geometry">
            <mxPoint x="380" y="2120" as="sourcePoint" />
            <mxPoint x="430" y="2070" as="targetPoint" />
          </mxGeometry>
        </mxCell>
        <mxCell id="8QTt8qBD1zh6w0zTsEaT-121" value="" style="endArrow=none;html=1;rounded=0;exitX=0.5;exitY=0.5;exitDx=0;exitDy=0;exitPerimeter=0;entryX=0;entryY=0;entryDx=0;entryDy=0;" edge="1" parent="1" source="8QTt8qBD1zh6w0zTsEaT-94" target="8QTt8qBD1zh6w0zTsEaT-92">
          <mxGeometry width="50" height="50" relative="1" as="geometry">
            <mxPoint x="380" y="2120" as="sourcePoint" />
            <mxPoint x="430" y="2070" as="targetPoint" />
          </mxGeometry>
        </mxCell>
        <mxCell id="8QTt8qBD1zh6w0zTsEaT-122" value="" style="endArrow=none;html=1;rounded=0;exitX=0.5;exitY=0.5;exitDx=0;exitDy=0;exitPerimeter=0;entryX=0;entryY=0;entryDx=0;entryDy=0;" edge="1" parent="1" source="8QTt8qBD1zh6w0zTsEaT-94" target="8QTt8qBD1zh6w0zTsEaT-91">
          <mxGeometry width="50" height="50" relative="1" as="geometry">
            <mxPoint x="-40" y="1900" as="sourcePoint" />
            <mxPoint x="10" y="1850" as="targetPoint" />
          </mxGeometry>
        </mxCell>
        <mxCell id="8QTt8qBD1zh6w0zTsEaT-123" value="" style="endArrow=none;html=1;rounded=0;exitX=0.5;exitY=0.5;exitDx=0;exitDy=0;exitPerimeter=0;entryX=0;entryY=0.5;entryDx=0;entryDy=0;" edge="1" parent="1" source="8QTt8qBD1zh6w0zTsEaT-94" target="8QTt8qBD1zh6w0zTsEaT-90">
          <mxGeometry width="50" height="50" relative="1" as="geometry">
            <mxPoint x="-30" y="1820" as="sourcePoint" />
            <mxPoint x="20" y="1770" as="targetPoint" />
          </mxGeometry>
        </mxCell>
        <mxCell id="8QTt8qBD1zh6w0zTsEaT-124" value="" style="endArrow=none;html=1;rounded=0;exitX=0.5;exitY=0.5;exitDx=0;exitDy=0;exitPerimeter=0;entryX=0;entryY=0.5;entryDx=0;entryDy=0;" edge="1" parent="1" source="8QTt8qBD1zh6w0zTsEaT-71" target="8QTt8qBD1zh6w0zTsEaT-66">
          <mxGeometry width="50" height="50" relative="1" as="geometry">
            <mxPoint x="-40" y="1220" as="sourcePoint" />
            <mxPoint x="10" y="1170" as="targetPoint" />
          </mxGeometry>
        </mxCell>
        <mxCell id="8QTt8qBD1zh6w0zTsEaT-125" value="" style="endArrow=none;html=1;rounded=0;exitX=0.5;exitY=0.5;exitDx=0;exitDy=0;exitPerimeter=0;entryX=0;entryY=0;entryDx=0;entryDy=0;" edge="1" parent="1" source="8QTt8qBD1zh6w0zTsEaT-71" target="8QTt8qBD1zh6w0zTsEaT-68">
          <mxGeometry width="50" height="50" relative="1" as="geometry">
            <mxPoint x="-75" y="1210" as="sourcePoint" />
            <mxPoint x="70" y="1200" as="targetPoint" />
          </mxGeometry>
        </mxCell>
        <mxCell id="8QTt8qBD1zh6w0zTsEaT-126" value="" style="endArrow=none;html=1;rounded=0;exitX=0.5;exitY=0.5;exitDx=0;exitDy=0;exitPerimeter=0;entryX=0;entryY=0;entryDx=0;entryDy=0;" edge="1" parent="1" source="8QTt8qBD1zh6w0zTsEaT-71" target="8QTt8qBD1zh6w0zTsEaT-69">
          <mxGeometry width="50" height="50" relative="1" as="geometry">
            <mxPoint x="-65" y="1220" as="sourcePoint" />
            <mxPoint x="80" y="1210" as="targetPoint" />
          </mxGeometry>
        </mxCell>
        <mxCell id="8QTt8qBD1zh6w0zTsEaT-127" value="" style="endArrow=none;html=1;rounded=0;exitX=0.5;exitY=0.5;exitDx=0;exitDy=0;exitPerimeter=0;entryX=0;entryY=0;entryDx=0;entryDy=0;" edge="1" parent="1" source="8QTt8qBD1zh6w0zTsEaT-71" target="8QTt8qBD1zh6w0zTsEaT-70">
          <mxGeometry width="50" height="50" relative="1" as="geometry">
            <mxPoint x="-55" y="1230" as="sourcePoint" />
            <mxPoint x="-30" y="1480" as="targetPoint" />
          </mxGeometry>
        </mxCell>
        <mxCell id="8QTt8qBD1zh6w0zTsEaT-128" value="" style="endArrow=none;html=1;rounded=0;exitX=0.5;exitY=0.5;exitDx=0;exitDy=0;exitPerimeter=0;entryX=0;entryY=0.5;entryDx=0;entryDy=0;" edge="1" parent="1" source="8QTt8qBD1zh6w0zTsEaT-72" target="8QTt8qBD1zh6w0zTsEaT-70">
          <mxGeometry width="50" height="50" relative="1" as="geometry">
            <mxPoint x="-100" y="1490" as="sourcePoint" />
            <mxPoint x="-50" y="1440" as="targetPoint" />
          </mxGeometry>
        </mxCell>
        <mxCell id="8QTt8qBD1zh6w0zTsEaT-129" value="" style="endArrow=none;html=1;rounded=0;exitX=0.5;exitY=0.5;exitDx=0;exitDy=0;exitPerimeter=0;entryX=0;entryY=0.5;entryDx=0;entryDy=0;" edge="1" parent="1" source="8QTt8qBD1zh6w0zTsEaT-72" target="8QTt8qBD1zh6w0zTsEaT-69">
          <mxGeometry width="50" height="50" relative="1" as="geometry">
            <mxPoint x="-40" y="1400" as="sourcePoint" />
            <mxPoint x="10" y="1350" as="targetPoint" />
          </mxGeometry>
        </mxCell>
        <mxCell id="8QTt8qBD1zh6w0zTsEaT-130" value="" style="endArrow=none;html=1;rounded=0;exitX=0.5;exitY=0.5;exitDx=0;exitDy=0;exitPerimeter=0;entryX=0;entryY=1;entryDx=0;entryDy=0;" edge="1" parent="1" source="8QTt8qBD1zh6w0zTsEaT-72" target="8QTt8qBD1zh6w0zTsEaT-68">
          <mxGeometry width="50" height="50" relative="1" as="geometry">
            <mxPoint x="10" y="1340" as="sourcePoint" />
            <mxPoint x="60" y="1290" as="targetPoint" />
          </mxGeometry>
        </mxCell>
        <mxCell id="8QTt8qBD1zh6w0zTsEaT-131" value="" style="endArrow=none;html=1;rounded=0;exitX=0.5;exitY=0.5;exitDx=0;exitDy=0;exitPerimeter=0;entryX=0;entryY=1;entryDx=0;entryDy=0;" edge="1" parent="1" source="8QTt8qBD1zh6w0zTsEaT-72" target="8QTt8qBD1zh6w0zTsEaT-66">
          <mxGeometry width="50" height="50" relative="1" as="geometry">
            <mxPoint x="20" y="1290" as="sourcePoint" />
            <mxPoint x="70" y="1240" as="targetPoint" />
          </mxGeometry>
        </mxCell>
        <mxCell id="8QTt8qBD1zh6w0zTsEaT-132" value="" style="endArrow=none;html=1;rounded=0;exitX=0.5;exitY=0.5;exitDx=0;exitDy=0;exitPerimeter=0;entryX=-0.006;entryY=0.668;entryDx=0;entryDy=0;entryPerimeter=0;" edge="1" parent="1" source="8QTt8qBD1zh6w0zTsEaT-24" target="8QTt8qBD1zh6w0zTsEaT-26">
          <mxGeometry width="50" height="50" relative="1" as="geometry">
            <mxPoint x="-130" y="-320" as="sourcePoint" />
            <mxPoint x="-80" y="-370" as="targetPoint" />
          </mxGeometry>
        </mxCell>
        <mxCell id="8QTt8qBD1zh6w0zTsEaT-133" value="" style="endArrow=none;html=1;rounded=0;exitX=0.5;exitY=0.5;exitDx=0;exitDy=0;exitPerimeter=0;entryX=0;entryY=0.5;entryDx=0;entryDy=0;" edge="1" parent="1" source="8QTt8qBD1zh6w0zTsEaT-23" target="8QTt8qBD1zh6w0zTsEaT-26">
          <mxGeometry width="50" height="50" relative="1" as="geometry">
            <mxPoint x="-140" y="-360" as="sourcePoint" />
            <mxPoint x="-90" y="-410" as="targetPoint" />
          </mxGeometry>
        </mxCell>
        <mxCell id="8QTt8qBD1zh6w0zTsEaT-134" value="" style="endArrow=none;html=1;rounded=0;exitX=0.5;exitY=0.5;exitDx=0;exitDy=0;exitPerimeter=0;entryX=0;entryY=0.25;entryDx=0;entryDy=0;" edge="1" parent="1" source="8QTt8qBD1zh6w0zTsEaT-22" target="8QTt8qBD1zh6w0zTsEaT-26">
          <mxGeometry width="50" height="50" relative="1" as="geometry">
            <mxPoint x="-140" y="-440" as="sourcePoint" />
            <mxPoint x="-90" y="-490" as="targetPoint" />
          </mxGeometry>
        </mxCell>
        <mxCell id="8QTt8qBD1zh6w0zTsEaT-135" value="" style="endArrow=none;html=1;rounded=0;exitX=0.75;exitY=0;exitDx=0;exitDy=0;entryX=0;entryY=0.5;entryDx=0;entryDy=0;" edge="1" parent="1" source="8QTt8qBD1zh6w0zTsEaT-26" target="8QTt8qBD1zh6w0zTsEaT-46">
          <mxGeometry width="50" height="50" relative="1" as="geometry">
            <mxPoint x="140" y="-510" as="sourcePoint" />
            <mxPoint x="190" y="-560" as="targetPoint" />
          </mxGeometry>
        </mxCell>
        <mxCell id="8QTt8qBD1zh6w0zTsEaT-136" value="" style="endArrow=none;html=1;rounded=0;entryX=0;entryY=0.5;entryDx=0;entryDy=0;exitX=1;exitY=0.25;exitDx=0;exitDy=0;" edge="1" parent="1" source="8QTt8qBD1zh6w0zTsEaT-26" target="8QTt8qBD1zh6w0zTsEaT-28">
          <mxGeometry width="50" height="50" relative="1" as="geometry">
            <mxPoint x="130" y="-360" as="sourcePoint" />
            <mxPoint x="180" y="-410" as="targetPoint" />
          </mxGeometry>
        </mxCell>
        <mxCell id="8QTt8qBD1zh6w0zTsEaT-137" value="" style="endArrow=none;html=1;rounded=0;exitX=1;exitY=0.75;exitDx=0;exitDy=0;entryX=0.25;entryY=1;entryDx=0;entryDy=0;" edge="1" parent="1" source="8QTt8qBD1zh6w0zTsEaT-26" target="8QTt8qBD1zh6w0zTsEaT-29">
          <mxGeometry width="50" height="50" relative="1" as="geometry">
            <mxPoint x="160" y="-330" as="sourcePoint" />
            <mxPoint x="210" y="-380" as="targetPoint" />
          </mxGeometry>
        </mxCell>
        <mxCell id="8QTt8qBD1zh6w0zTsEaT-138" value="" style="endArrow=none;html=1;rounded=0;exitX=1;exitY=0.5;exitDx=0;exitDy=0;entryX=0;entryY=0.5;entryDx=0;entryDy=0;" edge="1" parent="1" source="8QTt8qBD1zh6w0zTsEaT-26" target="8QTt8qBD1zh6w0zTsEaT-44">
          <mxGeometry width="50" height="50" relative="1" as="geometry">
            <mxPoint x="130" y="-240" as="sourcePoint" />
            <mxPoint x="180" y="-290" as="targetPoint" />
          </mxGeometry>
        </mxCell>
        <mxCell id="8QTt8qBD1zh6w0zTsEaT-139" value="" style="endArrow=none;html=1;rounded=0;exitX=0.5;exitY=0.5;exitDx=0;exitDy=0;exitPerimeter=0;entryX=0;entryY=0.5;entryDx=0;entryDy=0;" edge="1" parent="1" source="8QTt8qBD1zh6w0zTsEaT-1" target="8QTt8qBD1zh6w0zTsEaT-5">
          <mxGeometry width="50" height="50" relative="1" as="geometry">
            <mxPoint x="-90" y="220" as="sourcePoint" />
            <mxPoint x="-40" y="170" as="targetPoint" />
          </mxGeometry>
        </mxCell>
        <mxCell id="8QTt8qBD1zh6w0zTsEaT-140" value="" style="endArrow=none;html=1;rounded=0;exitX=0.5;exitY=0.5;exitDx=0;exitDy=0;exitPerimeter=0;entryX=0;entryY=0.5;entryDx=0;entryDy=0;" edge="1" parent="1" source="8QTt8qBD1zh6w0zTsEaT-1" target="8QTt8qBD1zh6w0zTsEaT-7">
          <mxGeometry width="50" height="50" relative="1" as="geometry">
            <mxPoint x="-90" y="230" as="sourcePoint" />
            <mxPoint x="-40" y="180" as="targetPoint" />
          </mxGeometry>
        </mxCell>
        <mxCell id="8QTt8qBD1zh6w0zTsEaT-141" value="" style="endArrow=none;html=1;rounded=0;exitX=0.5;exitY=0.5;exitDx=0;exitDy=0;exitPerimeter=0;entryX=0;entryY=0;entryDx=0;entryDy=0;" edge="1" parent="1" source="8QTt8qBD1zh6w0zTsEaT-1" target="8QTt8qBD1zh6w0zTsEaT-6">
          <mxGeometry width="50" height="50" relative="1" as="geometry">
            <mxPoint x="-20" y="310" as="sourcePoint" />
            <mxPoint x="30" y="260" as="targetPoint" />
          </mxGeometry>
        </mxCell>
        <mxCell id="8QTt8qBD1zh6w0zTsEaT-142" value="" style="endArrow=none;html=1;rounded=0;exitX=0.5;exitY=0.5;exitDx=0;exitDy=0;exitPerimeter=0;entryX=0;entryY=1;entryDx=0;entryDy=0;" edge="1" parent="1" source="8QTt8qBD1zh6w0zTsEaT-2" target="8QTt8qBD1zh6w0zTsEaT-5">
          <mxGeometry width="50" height="50" relative="1" as="geometry">
            <mxPoint x="-20" y="230" as="sourcePoint" />
            <mxPoint x="30" y="180" as="targetPoint" />
          </mxGeometry>
        </mxCell>
      </root>
    </mxGraphModel>
  </diagram>
</mxfile>
